<mxfile host="app.diagrams.net" modified="2024-01-28T18:35:03.572Z" agent="Mozilla/5.0 (Windows NT 10.0; Win64; x64) AppleWebKit/537.36 (KHTML, like Gecko) Chrome/121.0.0.0 Safari/537.36" version="23.0.2" etag="PN7hN4X8geUas-zCa4_a" type="github">
  <diagram name="PÃ¡gina-1" id="fkJ8krrL7ovkxqkE2WA5">
    <mxGraphModel>
      <root>
        <mxCell id="0" />
        <mxCell id="1" parent="0" />
      </root>
    </mxGraphModel>
  </diagram>
</mxfile>
